<svg xmlns="http://www.w3.org/2000/svg" version="1.1" xmlns:xlink="http://www.w3.org/1999/xlink" xmlns:svgjs="http://svgjs.dev/svgjs" width="100%" height="100%" viewBox="0 0 1000 600"><rect width="1000" height="600" x="0" y="0" fill="#000000"/><g><rect width="333.3333333333333" height="333.3333333333333" y="202.40741652468841" fill="#ffe67c" transform="matrix(0.6937305904478356,0,0,0.6937305904478355,0,43.961995460484076)" x="180.1851806640625"/><path d="M296.06467753072235 294.0740945991915L397.6390093163336 294.0740945991915L397.6390093163336 309.97684460211826L356.7462235945219 309.97684460211826L356.7462235945219 444.07409368694823L337.1667099630989 444.07409368694823L337.1667099630989 309.97684460211826L296.06467753072235 309.97684460211826L296.06467753072235 294.0740945991915Z " fill="#ffffff" transform="matrix(0.6937305904478356,0,0,0.6937305904478355,0,43.961995460484076)"/><path d="M596.8518441360927 302.69638220891824L691.3632472727032 302.69638220891824L691.3632472727032 317.4933411461392L653.3139242912779 317.4933411461392L653.3139242912779 442.266194139322L635.0958639456393 442.266194139322L635.0958639456393 317.4933411461392L596.8518441360927 317.4933411461392L596.8518441360927 302.69638220891824ZM732.0270705174721 350.3414774334662Q736.8388635553279 340.9404020184649 745.7392899837314 335.73921532436657Q754.639716412135 330.51021479767945 767.4618932355539 330.51021479767945L767.4618932355539 330.51021479767945L767.4618932355539 349.3401794602708L762.6501001976982 349.3401794602708Q732.0270705174721 349.3401794602708 732.0270705174721 382.5777094038404L732.0270705174721 382.5777094038404L732.0270705174721 442.266194139322L713.8090101718335 442.266194139322L713.8090101718335 332.51281074407024L732.0270705174721 332.51281074407024L732.0270705174721 350.3414774334662ZM781.6747616884109 387.00010878545345Q781.6747616884109 370.17274006925294 788.4891506726574 357.46181857618905Q795.3035396569038 344.75089708312515 807.2078600048936 337.74181127075735Q819.1399941854722 330.73272545838955 833.7422562945718 330.73272545838955L833.7422562945718 330.73272545838955Q848.1776354081389 330.73272545838955 858.7747056244569 336.9352101256833Q869.3995896733637 343.137694792977 874.6007763674621 352.5387702079783L874.6007763674621 352.5387702079783L874.6007763674621 332.51281074407024L893.0413473738107 332.51281074407024L893.0413473738107 442.266194139322L874.6007763674621 442.266194139322L874.6007763674621 421.85084101917124Q869.2048928452424 431.44661326229385 858.4965672985694 437.7603532599427Q847.7604279193075 444.07409325759147 833.5475594664505 444.07409325759147L833.5475594664505 444.07409325759147Q818.9452973573509 444.07409325759147 807.1244185071274 436.8703106171023Q795.3035396569038 429.6387141440244 788.4891506726574 416.6218404924841Q781.6747616884109 403.6049668409439 781.6747616884109 387.00010878545345L781.6747616884109 387.00010878545345ZM874.6007763674621 387.1948056135748Q874.6007763674621 374.7898362789873 869.594286501485 365.55564385951857Q864.587796635508 356.3492652726386 856.0767638633471 351.45403073701664Q847.5657310911862 346.5309823688059 837.3580545311108 346.5309823688059L837.3580545311108 346.5309823688059Q827.1503779710355 346.5309823688059 818.7227866966408 351.3427754066616Q810.3230092548349 356.1545684445173 805.316519388858 365.36094703139725Q800.3100295228809 374.5673256182772 800.3100295228809 387.00010878545345L800.3100295228809 387.00010878545345Q800.3100295228809 399.59977494816223 805.316519388858 408.9174088653973Q810.3230092548349 418.23504278263226 818.7227866966408 423.13027731825423Q827.1503779710355 428.053325686465 837.3580545311108 428.053325686465L837.3580545311108 428.053325686465Q847.5657310911862 428.053325686465 856.0767638633471 423.13027731825423Q864.587796635508 418.23504278263226 869.594286501485 408.9174088653973Q874.6007763674621 399.59977494816223 874.6007763674621 387.1948056135748L874.6007763674621 387.1948056135748ZM917.0724987305005 387.00010878545345Q917.0724987305005 370.17274006925294 923.8590738821582 357.46181857618905Q930.6734628664047 344.75089708312515 942.6055970469832 337.74181127075735Q954.5099173949731 330.73272545838955 969.3346901647827 330.73272545838955L969.3346901647827 330.73272545838955Q982.1568669882016 330.73272545838955 993.171144693351 336.6292579672069Q1004.1854223985006 342.52579047602427 1009.9706995769628 352.14937655173566L1009.9706995769628 352.14937655173566L1009.9706995769628 294.07409410640224L1028.4112705833118 294.07409410640224L1028.4112705833118 442.266194139322L1009.9706995769628 442.266194139322L1009.9706995769628 421.62833035846114Q1004.5748160547432 431.44661326229385 993.9499320058363 437.7603532599427Q983.3528617895184 444.07409325759147 969.1399933366614 444.07409325759147L969.1399933366614 444.07409325759147Q954.5099173949731 444.07409325759147 942.6055970469832 436.8703106171023Q930.6734628664047 429.6387141440244 923.8590738821582 416.6218404924841Q917.0724987305005 403.6049668409439 917.0724987305005 387.00010878545345L917.0724987305005 387.00010878545345ZM1009.9706995769628 387.1948056135748Q1009.9706995769628 374.7898362789873 1004.964209710986 365.55564385951857Q999.9577198450088 356.3492652726386 991.4466870728479 351.45403073701664Q982.9356543006869 346.5309823688059 972.7279777406117 346.5309823688059L972.7279777406117 346.5309823688059Q962.5203011805362 346.5309823688059 954.1205237387304 351.3427754066616Q945.6929324643357 356.1545684445173 940.6864425983587 365.36094703139725Q935.6799527323817 374.5673256182772 935.6799527323817 387.00010878545345L935.6799527323817 387.00010878545345Q935.6799527323817 399.59977494816223 940.6864425983587 408.9174088653973Q945.6929324643357 418.23504278263226 954.1205237387304 423.13027731825423Q962.5203011805362 428.053325686465 972.7279777406117 428.053325686465L972.7279777406117 428.053325686465Q982.9356543006869 428.053325686465 991.4466870728479 423.13027731825423Q999.9577198450088 418.23504278263226 1004.964209710986 408.9174088653973Q1009.9706995769628 399.59977494816223 1009.9706995769628 387.1948056135748L1009.9706995769628 387.1948056135748ZM1159.386608243788 383.1896137207932Q1159.386608243788 388.3908004148915 1158.7747039268352 394.20389142594263L1158.7747039268352 394.20389142594263L1071.0498759418824 394.20389142594263Q1072.051173915078 410.4193558251904 1082.175408977387 419.5422929143041Q1092.299644039696 428.63741617082894 1106.7072093206743 428.63741617082894L1106.7072093206743 428.63741617082894Q1118.5280881708977 428.63741617082894 1126.4272166261062 423.13027731825423Q1134.3541589139031 417.6231384656795 1137.5527496616105 408.41675987879955L1137.5527496616105 408.41675987879955L1157.1615016366873 408.41675987879955Q1152.766916087663 424.2428306218047 1139.5553456080015 434.1445550234037Q1126.3437751283398 444.07409325759147 1106.7072093206743 444.07409325759147L1106.7072093206743 444.07409325759147Q1091.0758354057907 444.07409325759147 1078.782121401558 437.0650074452236Q1066.4605935647369 430.0559216328558 1059.4515077523693 417.1224894790818Q1052.4424219400012 404.21687115789666 1052.4424219400012 387.1948056135748L1052.4424219400012 387.1948056135748Q1052.4424219400012 370.17274006925294 1059.2568109242477 357.350563245834Q1066.0433860759053 344.5283864224151 1078.3649139127265 337.6305559404023Q1090.686441749548 330.73272545838955 1106.7072093206743 330.73272545838955L1106.7072093206743 330.73272545838955Q1122.3385832355582 330.73272545838955 1134.3541589139031 337.51930061004725Q1146.3697345922478 344.3336895942938 1152.8781714180182 356.26582377487233Q1159.386608243788 368.1701441228621 1159.386608243788 383.1896137207932L1159.386608243788 383.1896137207932ZM1140.5566435811968 379.3791186561329Q1140.5566435811968 368.97674526793617 1135.9395473714626 361.46701046897067Q1131.3502649943168 353.9572756700051 1123.42332270652 350.0355252749898Q1115.5241942513117 346.14158871256325 1105.9006081756002 346.14158871256325L1105.9006081756002 346.14158871256325Q1092.077133378986 346.14158871256325 1082.3701058055083 354.95857364320057Q1072.6630782320308 363.7755585738378 1071.2723866025926 379.3791186561329L1071.2723866025926 379.3791186561329L1140.5566435811968 379.3791186561329ZM1261.296490849009 442.266194139322L1240.6864409007371 442.266194139322L1214.6526935976567 401.40767406643175L1189.6202442677716 442.266194139322L1170.595582777059 442.266194139322L1206.0304054951407 387.8067099305275L1170.595582777059 332.51281074407024L1191.2056327253308 332.51281074407024L1217.2393800284112 373.1766339888391L1242.0771325301753 332.51281074407024L1261.1017940208876 332.51281074407024L1225.8616681309272 386.8054119573321L1261.296490849009 442.266194139322Z " fill="#ffffff" transform="matrix(0.6937305904478356,0,0,0.6937305904478355,0,43.961995460484076)"/></g></svg>